<?xml version="1.0" encoding="UTF-8"?><svg id="Layer_2" xmlns="http://www.w3.org/2000/svg" xmlns:xlink="http://www.w3.org/1999/xlink" viewBox="0 0 188.58 188.58"><defs><style>.cls-1{fill:none;}.cls-2{fill:url(#New_Gradient_Swatch_copy);}.cls-3{fill:url(#New_Gradient_Swatch);}.cls-4{fill:url(#linear-gradient);}.cls-5{fill:url(#linear-gradient-3);}.cls-6{fill:url(#linear-gradient-4);}.cls-7{fill:url(#linear-gradient-2);}.cls-8{fill:url(#linear-gradient-5);}</style><linearGradient id="linear-gradient" x1="84.21" y1="109.28" x2="130.4" y2="82.61" gradientUnits="userSpaceOnUse"><stop offset="0" stop-color="#3d5afe"/><stop offset=".17" stop-color="#493bf7"/><stop offset=".37" stop-color="#5421f1"/><stop offset=".57" stop-color="#5b0eed"/><stop offset=".78" stop-color="#6003ea"/><stop offset="1" stop-color="#6200ea"/></linearGradient><linearGradient id="New_Gradient_Swatch" x1="109.66" y1="94.27" x2="175.41" y2="56.31" gradientUnits="userSpaceOnUse"><stop offset="0" stop-color="#1a237e"/><stop offset=".47" stop-color="#6200ea"/><stop offset=".68" stop-color="#5129f3"/><stop offset=".89" stop-color="#424cfa"/><stop offset="1" stop-color="#3d5afe"/></linearGradient><linearGradient id="linear-gradient-2" x1="1.38" y1="112.1" x2="92.82" y2="59.3" gradientUnits="userSpaceOnUse"><stop offset="0" stop-color="#3d5afe"/><stop offset=".67" stop-color="#6200ea"/><stop offset=".97" stop-color="#1a237e"/></linearGradient><linearGradient id="linear-gradient-3" x1="5.67" y1="119.53" x2="97.12" y2="66.74" xlink:href="#linear-gradient-2"/><linearGradient id="linear-gradient-4" x1="-4.7" y1="101.58" x2="86.75" y2="48.78" xlink:href="#linear-gradient-2"/><linearGradient id="linear-gradient-5" x1="7.41" y1="122.54" x2="98.86" y2="69.75" xlink:href="#linear-gradient-2"/><linearGradient id="New_Gradient_Swatch_copy" x1="0" y1="94.29" x2="188.58" y2="94.29" gradientUnits="userSpaceOnUse"><stop offset="0" stop-color="#1a237e"/><stop offset=".47" stop-color="#6200ea"/><stop offset=".68" stop-color="#5129f3"/><stop offset=".89" stop-color="#424cfa"/><stop offset="1" stop-color="#3d5afe"/></linearGradient></defs><g id="Layer_1-2"><g><path class="cls-4" d="M125.27,133.57c-2.52,5.18-7.65,8.42-13.41,8.45h-.09c-5.72,0-10.85-3.17-13.41-8.29l-21.57-43.14s9.76-18.77,25.77-11.08l-12.35-24.71,21.4,42.79s11.3,21.96,29.45,3.45"/><g><path class="cls-1" d="M33.68,133.61c-.63-.08-1.26-.13-1.91-.13-3.45,0-6.63,1.1-9.22,2.97l-3.3,6.6,25.04,12.52,3.15-6.3,.15-.29c-.17-7.95-6.18-14.45-13.91-15.38Z"/><path class="cls-1" d="M143.34,32.17l25.19,12.22-3.22,6.65c3.37-2.49,5.72-6.29,6.3-10.64-4.65-6.65-10.13-12.67-16.29-17.92-8.46,.33-15.22,7.27-15.22,15.8,0,.05,0,.09,0,.14,.05,.04,.09,.08,.14,.12l3.09-6.37Z"/><path class="cls-1" d="M44.29,155.58l-25.04-12.52,3.3-6.6c-3.39,2.44-5.78,6.2-6.42,10.52,4.54,6.72,9.94,12.82,16.01,18.16,8.54-.2,15.41-7.14,15.46-15.72-.05-.04-.1-.09-.16-.14l-3.15,6.3Z"/><path class="cls-1" d="M16.13,146.98c-.11,.77-.19,1.54-.19,2.34,0,8.74,7.09,15.83,15.83,15.83,.12,0,.25-.02,.37-.02-6.08-5.34-11.47-11.44-16.01-18.16Z"/><path class="cls-1" d="M171.61,40.4c.09-.69,.16-1.4,.16-2.11,0-8.74-7.09-15.83-15.83-15.83-.21,0-.41,.02-.62,.03,6.16,5.25,11.64,11.27,16.29,17.92Z"/><path class="cls-1" d="M140.11,38.42c0,.12,.02,.25,.02,.37l.12-.25s-.09-.08-.14-.12Z"/><path class="cls-1" d="M141.04,101.05c-18.15,18.51-29.45-3.45-29.45-3.45l20.75-42.77c-3.3-4.69-5.25-10.4-5.25-16.55,0-2.71,.38-5.33,1.09-7.82-10.12-5.4-21.65-8.47-33.9-8.47-39.86,0-72.29,32.43-72.29,72.29,0,9.39,1.82,18.35,5.09,26.58,1.12-.18,2.27-.28,3.42-.33L63.37,54.82c2.55-5.11,7.69-8.29,13.41-8.29h0c5.72,0,10.85,3.17,13.41,8.29l12.35,24.71c-16.01-7.7-25.77,11.08-25.77,11.08l-21.23,42.45c3.18,4.63,5.05,10.24,5.05,16.27,0,2.87-.43,5.64-1.21,8.25,10.35,5.73,22.25,9,34.89,9,39.86,0,72.29-32.43,72.29-72.29,0-9.79-1.96-19.12-5.5-27.64-1.16,.21-2.34,.35-3.54,.42l-16.49,33.99Z"/><path class="cls-3" d="M141.04,101.05l16.49-33.99c-.53,.03-1.06,.05-1.6,.05-9.74,0-18.37-4.86-23.59-12.28l-20.75,42.77s11.3,21.96,29.45,3.45Z"/><polygon class="cls-7" points="90.2 54.81 76.78 46.52 76.79 90.59 90.2 54.81"/><path class="cls-5" d="M102.56,79.52l-12.35-24.71-13.41,35.78s9.76-18.77,25.77-11.08Zm-14.14-12.19h0s0,0,0,0Z"/><path class="cls-6" d="M76.79,46.52h0l13.42,8.29c-2.56-5.11-7.7-8.29-13.41-8.29Z"/><path class="cls-8" d="M76.78,46.52c-5.72,0-10.86,3.18-13.41,8.29L30.51,120.54c.42-.02,.84-.05,1.26-.05,9.87,0,18.59,4.98,23.79,12.56l21.23-42.45V46.52Z"/><path class="cls-1" d="M47.6,149.41s0-.06,0-.1c0-.11-.01-.22-.02-.33l-.15,.29c.05,.04,.1,.09,.16,.14Z"/><path class="cls-2" d="M179.76,54.5c3.16-4.62,5.01-10.21,5.01-16.22,0-15.9-12.93-28.83-28.83-28.83-5.03,0-9.76,1.3-13.89,3.57C128.03,4.75,111.71,0,94.29,0,42.3,0,0,42.3,0,94.29c0,13.69,2.94,26.7,8.2,38.45-3.31,4.69-5.27,10.41-5.27,16.58,0,15.9,12.94,28.83,28.83,28.83,4.87,0,9.46-1.22,13.48-3.36,14.3,8.74,31.09,13.78,49.03,13.78,51.99,0,94.29-42.3,94.29-94.29,0-14.21-3.17-27.69-8.82-39.78Zm-24.44-32.02c.21,0,.41-.03,.62-.03,8.74,0,15.83,7.09,15.83,15.83,0,.72-.06,1.42-.16,2.11-.58,4.36-2.93,8.15-6.3,10.64-2.62,1.93-5.86,3.08-9.37,3.08-.55,0-1.1-.03-1.64-.08-7.81-.8-13.92-7.28-14.17-15.24,0-.12-.02-.24-.02-.37,0-.05,0-.09,0-.14,0-8.54,6.76-15.48,15.22-15.8ZM32.14,165.13c-.12,0-.25,.02-.37,.02-8.75,0-15.83-7.09-15.83-15.83,0-.8,.08-1.58,.19-2.34,.64-4.32,3.03-8.07,6.42-10.52,2.59-1.87,5.78-2.97,9.22-2.97,.65,0,1.28,.05,1.91,.13,7.74,.93,13.75,7.43,13.91,15.38,0,.11,.02,.22,.02,.33,0,.03,0,.06,0,.1-.05,8.58-6.92,15.52-15.46,15.72Zm62.15,1.44c-12.65,0-24.54-3.27-34.89-9,.78-2.62,1.21-5.39,1.21-8.25,0-6.03-1.87-11.64-5.05-16.27-5.2-7.58-13.92-12.56-23.79-12.56-.43,0-.84,.03-1.26,.05-1.16,.05-2.3,.15-3.42,.33-3.27-8.23-5.09-17.2-5.09-26.58,0-39.86,32.43-72.29,72.29-72.29,12.24,0,23.78,3.07,33.9,8.47-.7,2.49-1.09,5.11-1.09,7.82,0,6.16,1.95,11.86,5.25,16.55,5.22,7.42,13.85,12.28,23.59,12.28,.54,0,1.07-.02,1.6-.05,1.2-.07,2.38-.21,3.54-.42,3.54,8.52,5.5,17.85,5.5,27.64,0,39.86-32.43,72.29-72.29,72.29Z"/></g></g></g></svg>